<svg width="20" height="20" viewBox="0 0 20 20" fill="none" xmlns="http://www.w3.org/2000/svg">
<g clip-path="url(#clip0_48_1087)">
<path d="M4.25096 4.13824L2.99572 2.88305C2.76689 2.65422 2.76689 2.28325 2.99572 2.05442C3.22451 1.82559 3.59553 1.82563 3.82436 2.05442L5.0796 3.30961C5.30843 3.5384 5.30843 3.90942 5.0796 4.13824C4.85085 4.36703 4.47983 4.36711 4.25096 4.13824Z" fill="#9F0023"/>
<path d="M1.52724 6.90356H2.78247C3.10606 6.90356 3.36841 7.16591 3.36841 7.4895C3.36841 7.8131 3.10606 8.07544 2.78247 8.07544H1.52724C1.20364 8.07544 0.941299 7.8131 0.941299 7.4895C0.941299 7.16591 1.20364 6.90356 1.52724 6.90356Z" fill="#9F0023"/>
<path d="M8.43115 2.42707C8.10756 2.42707 7.84521 2.16473 7.84521 1.84113V0.585938C7.84521 0.262344 8.10756 0 8.43115 0C8.75475 0 9.01709 0.262344 9.01709 0.585938V1.84113C9.01709 2.16473 8.75475 2.42707 8.43115 2.42707Z" fill="#9F0023"/>
<path d="M18.887 14.6066C19.1157 14.8351 19.1159 15.2064 18.887 15.4352L16.3766 17.9456C16.1479 18.1744 15.7769 18.1745 15.548 17.9456L14.5661 16.9638L17.9051 13.6248L18.887 14.6066Z" fill="#9F0023"/>
<path d="M8.74235 15.0796L12.8567 17.0158L10.0441 19.8284C9.81532 20.0571 9.44427 20.0572 9.21544 19.8284L7.01884 17.6318C6.79001 17.4029 6.79001 17.032 7.01884 16.8031L8.74235 15.0796Z" fill="#9F0023"/>
<path d="M11.1549 2.05442C11.2898 1.9195 11.482 1.85876 11.6699 1.89153C11.8579 1.92435 12.0181 2.04661 12.0994 2.21927L17.0767 12.796L13.7376 16.135L3.16088 11.1577C2.98822 11.0765 2.86596 10.9163 2.83315 10.7283C2.80033 10.5403 2.86112 10.3482 2.99604 10.2133L11.1549 2.05442Z" fill="#9F0023"/>
</g>
<defs>
<clipPath id="clip0_48_1087">
<rect width="20" height="20" fill="white" transform="matrix(-1 0 0 1 20 0)"/>
</clipPath>
</defs>
</svg>
