<svg width="15" height="12" viewBox="0 0 15 12" fill="none" xmlns="http://www.w3.org/2000/svg">
<path d="M14.8506 2.79995C14.8506 2.79995 14.7041 1.69683 14.2529 1.21245C13.6816 0.574951 13.043 0.571826 12.75 0.534326C10.6523 0.371826 7.50293 0.371826 7.50293 0.371826H7.49707C7.49707 0.371826 4.34766 0.371826 2.25 0.534326C1.95703 0.571826 1.31836 0.574951 0.74707 1.21245C0.295898 1.69683 0.152344 2.79995 0.152344 2.79995C0.152344 2.79995 0 4.09683 0 5.39058V6.60308C0 7.89683 0.149414 9.1937 0.149414 9.1937C0.149414 9.1937 0.295898 10.2968 0.744141 10.7812C1.31543 11.4187 2.06543 11.3968 2.39941 11.4656C3.60059 11.5875 7.5 11.625 7.5 11.625C7.5 11.625 10.6523 11.6187 12.75 11.4593C13.043 11.4218 13.6816 11.4187 14.2529 10.7812C14.7041 10.2968 14.8506 9.1937 14.8506 9.1937C14.8506 9.1937 15 7.89995 15 6.60308V5.39058C15 4.09683 14.8506 2.79995 14.8506 2.79995ZM5.9502 8.07495V3.57808L10.002 5.83433L5.9502 8.07495Z" fill="#373334"/>
</svg>
