<svg width="13" height="12" viewBox="0 0 13 12" fill="none" xmlns="http://www.w3.org/2000/svg">
<path fill-rule="evenodd" clip-rule="evenodd" d="M6.92068 1.1371C7.04569 1.01211 7.21523 0.941895 7.39201 0.941895C7.56878 0.941895 7.73832 1.01211 7.86334 1.1371L12.53 5.80399C12.655 5.92902 12.7252 6.09857 12.7252 6.27535C12.7252 6.45213 12.655 6.62168 12.53 6.74671L7.86334 11.4136C7.73761 11.535 7.56921 11.6022 7.39441 11.6007C7.21961 11.5992 7.0524 11.5291 6.9288 11.4055C6.80519 11.2819 6.73508 11.1147 6.73356 10.9398C6.73204 10.765 6.79924 10.5966 6.92068 10.4709L10.4493 6.94205H1.39201C1.2152 6.94205 1.04563 6.87181 0.920604 6.74678C0.79558 6.62175 0.725342 6.45217 0.725342 6.27535C0.725342 6.09853 0.79558 5.92895 0.920604 5.80392C1.04563 5.67889 1.2152 5.60865 1.39201 5.60865H10.4493L6.92068 2.07981C6.79569 1.95478 6.72548 1.78524 6.72548 1.60845C6.72548 1.43167 6.79569 1.26212 6.92068 1.1371Z" fill="#9F0023"/>
</svg>
