<svg width="13" height="12" viewBox="0 0 13 12" fill="none" xmlns="http://www.w3.org/2000/svg">
<path fill-rule="evenodd" clip-rule="evenodd" d="M6.07967 1.1371C6.20465 1.26212 6.27486 1.43167 6.27486 1.60845C6.27486 1.78524 6.20465 1.95478 6.07967 2.07981L2.551 5.60865H11.6083C11.7851 5.60865 11.9547 5.67889 12.0797 5.80392C12.2048 5.92895 12.275 6.09853 12.275 6.27535C12.275 6.45217 12.2048 6.62175 12.0797 6.74678C11.9547 6.87181 11.7851 6.94205 11.6083 6.94205H2.551L6.07967 10.4709C6.20111 10.5966 6.26831 10.765 6.26679 10.9398C6.26527 11.1147 6.19515 11.2819 6.07155 11.4055C5.94794 11.5291 5.78074 11.5992 5.60594 11.6007C5.43114 11.6022 5.26274 11.535 5.137 11.4136L0.470337 6.74671C0.345357 6.62168 0.275146 6.45213 0.275146 6.27535C0.275146 6.09857 0.345357 5.92902 0.470337 5.80399L5.137 1.1371C5.26202 1.01211 5.43156 0.941895 5.60834 0.941895C5.78511 0.941895 5.95465 1.01211 6.07967 1.1371Z" fill="#9F0023"/>
</svg>
