<svg width="544" height="122" fill="none" xmlns="http://www.w3.org/2000/svg"><g opacity=".1"><path d="M543.344 24.118c-.185.187-.463.467-.463.654-.463 5.89-3.058 10.564-7.229 14.584-1.668 1.59-1.76 1.59-.648 3.646 2.131 3.926 2.965 8.227 2.502 12.62-.741 6.264-3.707 11.406-8.804 15.239-3.429 2.524-7.229 4.207-11.399 4.207-38.924 0-77.847-.094-116.771-.187h-44.206c.463-1.87.834-3.646 1.297-5.329 3.059-12.434 6.21-24.867 9.268-37.394.185-.842.556-1.122 1.297-1.029h11.121c.834 0 1.113.094.834 1.122-1.853 7.386-3.707 14.677-5.467 22.063-.556 2.15-1.02 4.3-1.576 6.45-.185.842 0 1.122.834 1.029h1.205c47.079 0 94.158 0 141.33.093 2.039 0 3.799-.28 5.375-1.683 1.483-1.308 2.502-2.898 2.873-4.954.927-5.422-2.132-10.097-7.692-10.938-3.615-.561-7.136-.374-10.658-.374-34.568-.094-69.136 0-103.703 0h-1.669c.464-1.683.834-3.179 1.205-4.674.649-2.431 1.205-4.862 1.854-7.292.185-.842.556-1.122 1.39-1.122 1.668.187 3.429.187 5.097.28l40.777.28c8.804.094 17.516.188 26.32.188 7.599.093 15.198.187 22.798.187 7.043.093 14.086.187 21.13.187 2.317 0 4.448-.748 6.209-2.431 2.132-2.057 2.873-4.58 2.688-7.572-.186-3.366-2.873-6.918-6.21-7.666-.926-.187-1.946-.374-2.965-.374h-43.28c-27.895-.094-55.79-.187-83.685-.187-27.247-.094-54.493-.187-81.647-.187-1.668 0-1.668 0-2.039 1.59-2.78 11.31-5.56 22.53-8.341 33.841l-6.116 24.68c-.093.374-.556.842-.927.842-3.985.093-7.97 0-12.048 0-.092 0-.278-.094-.556-.094.742-2.898 1.39-5.702 2.132-8.507 3.985-15.986 7.877-31.879 11.862-47.865 1.39-5.609 2.78-11.218 4.078-16.827.185-.935.649-1.122 1.575-1.122h222.143c2.595 0 4.912 1.028 7.043 2.15 3.8 2.057 6.58 5.048 8.619 8.788 1.668 3.178 3.058 6.357 3.151 10.003 0 .187.185.374.278.56-.186.936-.186 1.683-.186 2.525zM418.793 122c.556-2.805 1.205-5.609 1.761-8.507.092-.655.463-.935 1.112-.842.927.187 1.39-.28 1.761-1.121 2.687-5.142 4.077-10.564 5.189-16.174.093-.654.278-1.028 1.02-1.028h13.438c.185 0 .278.094.556.094-.464 2.15-.927 4.394-1.39 6.544-.742 3.646-1.576 7.198-2.317 10.844-.093.654 0 .935.741.935.742 0 .834.28.649.935-.556 2.337-1.02 4.674-1.483 7.011-.093.468 0 .842 0 1.309h-3.151c.371-2.057.834-4.113 1.205-6.264h-14.921c-.37 2.151-.649 4.207-1.019 6.264h-3.151zm20.388-24.68c-2.131 0-4.17.093-6.116 0-.927 0-1.205.374-1.483 1.215-1.205 4.02-2.595 7.946-3.892 11.873a65.62 65.62 0 00-.834 2.337h9.082c1.112-5.142 2.131-10.19 3.243-15.425z" fill="#F2F2F2"/><path d="M248.821 74.695c5.004-20.286 10.009-40.572 15.013-60.952h-1.946c-82.666 0-165.425 0-248.091.093-4.912 0-7.23-3.459-7.23-7.292C6.662 3.552 8.422.841 11.203.187 11.758.093 12.314 0 12.777 0h268.295c-.649 2.805-1.39 5.61-2.039 8.32-.371 1.683-.649 3.46-1.112 5.142-.834 3.459-1.854 6.918-2.78 10.377-2.132 8.414-4.264 16.828-6.302 25.241-2.039 8.227-3.985 16.547-6.024 24.774-.093.28-.464.748-.742.748-4.355.093-8.804.093-13.252.093z" fill="#D2D2D2"/><path d="M92.203 75.163H13.707c-3.15 0-5.653-1.776-6.58-4.768-.833-2.524.279-5.329 2.78-7.105 1.298-.935 2.781-1.122 4.264-1.122h155.972c3.707 0 7.229-3.365 7.785-7.011.463-3.366-.278-6.17-2.78-8.508-1.483-1.308-3.151-2.15-5.19-2.15H85.994c-2.78 0-4.819-1.122-6.024-3.74-1.297-2.71-.741-5.234 1.205-7.291 1.205-1.309 2.688-2.057 4.634-2.057h83.037c10.657 0 19.647 7.572 21.593 17.95 1.298 6.824-.556 12.9-5.004 18.136-3.615 4.3-8.248 6.637-13.716 7.572-.464.094-.927 0-1.298 0-26.134.094-52.176.094-78.218.094zm292.484 40.479h-5.097c-.742 0-1.02-.187-.835-1.028l4.171-19.632c.092-.28.649-.748.927-.748 3.243 0 6.579 0 9.823.187 2.317.093 3.892 1.59 4.449 3.833.463 1.87-.464 4.113-2.225 5.048-.278.187-.648.281-1.019.561-.556.374-.649.654 0 1.122.834.654 1.668 1.309 2.131 2.15 1.113 1.87.278 3.646-.741 5.329-1.112 1.869-3.058 2.617-5.097 2.898-2.224.28-4.449.28-6.58.374.093 0 .093 0 .093-.094zm2.317-2.991h2.78c1.668-.094 2.965-.655 3.707-2.244.741-1.776 0-3.646-1.946-3.926-2.225-.281-4.541-.187-6.858-.187-.186 0-.464.374-.464.561-.37 1.589-.741 3.272-1.112 4.861-.093.561.093.935.742.935h3.151zm-1.947-9.255c2.595-.094 4.819-.187 7.044-.374 1.575-.187 2.502-1.777 2.317-3.553-.186-1.402-1.113-2.15-2.873-2.15h-3.522c-1.668 0-1.761 0-2.039 1.683-.371 1.308-.556 2.711-.927 4.394zM189.88 115.643h-5.19c-.741 0-.927-.28-.741-.935l4.17-19.632c.093-.374.649-.748.927-.748 3.243 0 6.58 0 9.823.187 2.503.187 4.171 1.87 4.541 4.207.278 1.496-.741 4.113-2.872 4.955-.371.093-.557.467-.835.748.278.28.464.561.742.748 2.317 1.495 2.78 3.552 1.761 6.076-1.112 2.618-3.244 3.833-5.839 4.114-2.131.28-4.356.28-6.487.373v-.093zm-1.576-2.992c2.595 0 4.912.094 7.136 0 1.483 0 2.688-.841 3.244-2.243.741-1.776 0-3.646-1.853-3.927-1.669-.28-3.337-.187-5.098-.187-2.131 0-2.224 0-2.687 2.151-.186 1.308-.464 2.711-.742 4.206zm6.488-15.331c-.834 0-1.668-.094-2.41 0-.371.093-.834.467-.927.748-.37 1.308-.648 2.711-.926 4.113-.186.654 0 1.028.834 1.028 1.483 0 3.058.094 4.541 0 .834-.093 1.668-.28 2.409-.654 1.112-.561 1.668-2.15 1.39-3.46-.278-1.12-1.204-1.775-2.594-1.775h-2.317zm300.362-2.992c-.927 4.487-1.853 8.881-2.78 13.275.092.094.185.187.371.187.556-.467 1.112-.841 1.575-1.402 2.41-2.898 4.819-5.796 7.321-8.6.556-.655 1.02-1.216 1.576-1.87.741-1.029 1.575-1.777 2.965-1.496.556.093 1.205 0 1.947 0-.371 1.776-.742 3.365-1.02 5.048-1.112 5.235-2.224 10.377-3.336 15.612-.093.281-.556.748-.834.748-3.522 0-3.059.561-2.317-2.711.649-3.272 1.39-6.544 2.131-9.816.093-.281-.092-.655-.185-.935-.278.187-.556.187-.741.467-3.244 3.833-6.488 7.76-9.731 11.593-1.112 1.308-2.873 1.963-4.356 1.495-.185-.093-.463-.56-.371-.841.649-3.178 1.39-6.357 2.039-9.536.742-3.365 1.39-6.637 2.132-10.003.185-.747.463-1.028 1.205-.934.556-.28 1.39-.28 2.409-.28zm-86.469-.001a1605.62 1605.62 0 01-2.78 13.182c.092.093.185.187.37.187.556-.467 1.112-.841 1.576-1.402 2.409-2.898 4.819-5.797 7.321-8.601.556-.654 1.112-1.309 1.576-1.963.741-.935 1.575-1.683 2.872-1.496.649.093 1.205 0 2.039 0-.463 2.15-.834 4.207-1.297 6.17-1.02 4.768-2.039 9.629-3.058 14.397-.093.654-.371.748-.927.748-3.336-.094-2.966.467-2.224-2.805.648-3.272 1.39-6.544 2.131-9.816.093-.28-.093-.654-.093-.935-.278.094-.556.187-.741.468-3.244 3.833-6.58 7.759-9.731 11.592-1.112 1.309-2.78 1.963-4.356 1.496-.185-.094-.463-.561-.37-.842 1.019-4.861 2.039-9.722 3.151-14.583.37-1.59.741-3.272 1.019-4.862.093-.748.464-1.028 1.205-1.028.463.093 1.297.093 2.317.093zm-141.608 8.696c-.186 5.049-3.059 10.564-8.156 12.434-4.17 1.496-8.619.561-11.028-3.272-1.298-2.15-1.668-4.581-1.112-7.105.556-2.524 1.297-4.861 2.873-6.918 1.575-2.057 3.614-3.366 6.116-4.02 2.41-.654 4.819-.467 7.136.841 2.688 1.59 4.263 4.862 4.171 8.04zm-16.682 4.114c0 2.243.649 4.207 2.78 5.235 2.225 1.028 4.356.748 6.21-.748 2.038-1.496 2.965-3.739 3.521-6.17.464-1.87.464-3.833-.37-5.703-1.483-3.365-6.58-3.646-9.175-.841-2.039 2.337-2.966 5.142-2.966 8.227zm-150.225-3.928c-.463 4.674-2.132 8.881-6.487 11.498-4.356 2.524-9.917 2.057-12.697-2.43-1.39-2.244-1.668-4.768-1.112-7.292.556-2.431 1.297-4.768 2.873-6.825 1.575-2.056 3.707-3.365 6.117-3.926 2.409-.655 4.819-.468 7.043.841 3.058 1.683 4.078 4.581 4.263 8.134zm-3.892-.094v-.467c0-2.525-1.113-4.394-2.966-5.142-2.688-1.028-5.375-.094-6.858 1.496-2.132 2.337-3.058 5.235-3.058 8.507.092 2.057.648 3.833 2.594 4.768 2.04 1.028 3.986.935 5.84-.281 3.243-2.15 4.17-5.328 4.448-8.881zm85.446.094c-.464 4.674-2.132 8.881-6.487 11.498-4.356 2.524-9.917 2.057-12.697-2.43-1.39-2.244-1.668-4.768-1.112-7.292.556-2.431 1.297-4.768 2.873-6.825 1.575-2.056 3.707-3.365 6.116-3.926 2.41-.655 4.82-.468 7.044.841 3.058 1.683 4.17 4.581 4.263 8.134zm-16.682 3.832c0 2.338.649 3.927 1.946 4.862 2.317 1.589 5.376 1.402 7.414-.561 2.503-2.431 3.522-5.422 3.429-8.788 0-2.431-1.204-4.3-3.058-4.955-2.78-1.121-5.375 0-6.765 1.496-2.039 2.15-2.966 4.955-2.966 7.946zM18.9 112.931c2.687-.187 3.15-.56 3.707-3.178 1.02-4.768 2.038-9.629 3.15-14.397.093-.374.557-1.028.835-1.028 4.448-.094 8.99 0 13.623 0-.463 2.15-.834 4.113-1.298 6.17-1.019 4.768-2.038 9.629-3.058 14.397-.185.654-.37.841-1.02.841h-2.13c-.742 0-.835-.28-.742-.935l3.336-15.706c.37-1.495.186-1.682-1.297-1.682h-3.8c-.834 0-1.205.187-1.39 1.122-.927 4.487-1.946 9.068-3.058 13.462-.834 2.991-2.688 4.3-5.375 4.206-.557 0-1.113-.093-1.576-.28-.185-.093-.463-.561-.463-.748.185-.841.463-1.496.556-2.244zm338.447-18.603c-.556 2.524-1.02 4.955-1.483 7.386-.927 4.393-1.946 8.787-2.873 13.181-.093.655-.371.748-.927.748h-2.131c-.742 0-.927-.28-.742-.935l3.337-15.706c.37-1.589.278-1.682-1.39-1.682h-3.8c-.834 0-1.112.28-1.298 1.122-1.019 4.58-1.853 9.161-3.151 13.555-.926 3.553-3.336 4.674-6.95 3.926-.186-.093-.371-.187-.649-.28.185-.841.463-1.776.649-2.618 2.78-.28 3.336-.748 3.892-3.739 1.02-4.674 1.946-9.442 2.966-14.117.092-.373.556-.84.926-.84h13.624zm116.027-.001a270.271 270.271 0 01-1.761 8.413c.371.094.741.094 1.019.094h7.044c.741 0 1.112-.28 1.205-.935.463-2.244.926-4.394 1.39-6.637.092-.655.37-1.029 1.112-.935h2.965c-.463 2.15-.834 4.113-1.297 6.17-1.019 4.768-2.039 9.629-3.058 14.397-.093.654-.371.841-1.02.841h-2.131c-.742 0-.927-.28-.742-.935.556-2.524 1.112-4.955 1.576-7.479.278-1.215.092-1.402-1.02-1.402h-6.58c-.834 0-1.204.187-1.39 1.028-.556 2.711-1.204 5.329-1.668 8.04-.093.655-.371.842-.927.748h-1.019c-2.595 0-2.132 0-1.668-2.057 1.205-6.076 2.595-12.153 3.892-18.23.186-.84.464-1.121 1.298-1.121h2.78zm-24.285 18.417h12.233c-.186.935-.371 1.777-.649 2.525-.093.28-.556.467-.834.467H445.66c-.742 0-.927-.28-.742-1.028 1.39-6.544 2.78-12.995 4.171-19.539.092-.374.648-.841.926-.841 4.449-.094 8.99 0 13.438 0 .649 0 .834.093.649.841-.649 2.618-.278 2.15-2.595 2.15h-7.97c-.834 0-1.205.28-1.297 1.122-.186 1.496-.557 2.992-.927 4.581.556 0 1.019.093 1.483.093h8.248c1.39 0 1.39 0 1.019 1.403v.093c-.093 1.215-.741 1.589-2.039 1.589-2.78-.093-5.56 0-8.341 0-.741 0-1.112.187-1.297 1.029-.463 1.683-.927 3.459-1.297 5.515zm-126.029-9.722c.649 0 1.02.094 1.483.094h8.526c.742 0 1.02.093.742.935-.649 2.243-.093 2.056-2.595 2.056-2.595 0-5.097.094-7.692 0-1.02 0-1.39.374-1.576 1.216-.278 1.776-.648 3.459-1.019 5.328.649 0 1.019.094 1.483.094h9.453c.926 0 1.297.093.926 1.215-.648 1.963-.092 1.87-2.317 1.87H317.5c-.834 0-1.112-.187-.927-1.122 1.39-6.45 2.78-12.901 4.171-19.445.092-.28.556-.748.834-.748h13.901c.093 0 .185.094.463.187-.185.748-.278 1.59-.556 2.337-.092.28-.741.468-1.112.468-2.965 0-5.838.093-8.804 0-1.019 0-1.483.187-1.668 1.402 0 1.122-.371 2.524-.742 4.113zm-34.387-8.507c-.185.841-.278 1.682-.649 2.337-.092.28-.741.467-1.112.467-2.965 0-5.838.094-8.804 0-1.019 0-1.483.187-1.575 1.31-.093 1.12-.371 2.243-.742 3.365-.278.934.093 1.121.927 1.121h9.916c-.185.935-.371 1.777-.649 2.525-.092.28-.741.467-1.112.467h-8.804c-.834 0-1.297.187-1.483 1.122-.278 1.496-.648 2.991-.926 4.581-.186.841.278 1.028 1.019 1.028h11.028c-.185.935-.37 1.776-.648 2.524-.093.281-.556.468-.834.468H269.86c-.741 0-.834-.374-.649-1.029 1.112-5.235 2.317-10.564 3.429-15.799.278-1.215.464-2.524.742-3.646.092-.374.556-.841.926-.841 4.541-.094 9.083 0 13.624 0 .278-.187.463-.094.741 0zm74.14 18.136h11.214c.648 0 1.019.094.741.935-.649 2.337-.093 2.057-2.595 2.057h-12.696c-1.02 0-1.298-.187-1.02-1.309 1.39-6.45 2.688-12.901 4.078-19.258.093-.28.556-.748.834-.748h13.901c.093 0 .186.094.464.187-.186.841-.371 1.59-.649 2.43-.093.281-.649.375-1.02.375-2.965 0-5.838.093-8.804 0-1.019 0-1.483.187-1.668 1.402-.185 1.402-.556 2.805-.927 4.3.649 0 1.02.094 1.483.094h8.526c.742 0 1.02.093.742.935-.649 2.243-.093 2.056-2.595 2.056-2.595 0-5.097.094-7.692 0-1.02 0-1.39.374-1.576 1.216 0 1.682-.37 3.459-.741 5.328zm165.792-18.136c-.185.748-.278 1.59-.556 2.15-.185.281-.742.561-1.112.561a144.1 144.1 0 01-8.99 0c-.834 0-1.297.187-1.39 1.122-.185 1.216-.463 2.431-.741 3.553-.093.28-.093.561-.093 1.028h9.916c.742 0 1.02.094.742.935-.649 2.244-.093 2.057-2.595 2.057h-7.785c-.741 0-1.205.187-1.39 1.028-.278 1.589-.649 3.085-1.019 4.674-.093.281 0 .468.092.842.464 0 1.02.093 1.483.093h9.453c.834 0 1.297.187.834 1.029-.093.28-.185.654-.278.934-.093.748-.463 1.029-1.205 1.029h-13.994c-.834 0-1.019-.187-.834-1.029 1.39-6.45 2.78-12.901 4.171-19.445.092-.374.556-.841.834-.841 4.633-.094 9.267 0 13.901 0 .185.093.278.187.556.28zM55.034 110.783h-8.433c-.278 0-.649.28-.834.56-.742 1.216-1.298 2.431-2.04 3.553-.184.374-.74.654-1.204.748-.927.093-1.853 0-3.058 0 1.297-2.337 2.41-4.581 3.614-6.731 1.39-2.618 2.873-5.235 4.356-7.853 1.112-2.057 2.224-4.114 3.429-6.077.185-.28.649-.56 1.02-.56 1.111-.094 2.13 0 3.243 0 .556 0 .834.093.927.747.926 6.077 1.946 12.154 2.873 18.23.092.748.185 1.496.37 2.337-1.02 0-2.038.094-2.965-.093-.371-.094-.742-.655-.834-1.029-.186-1.215-.278-2.43-.464-3.832zm-6.95-2.992h5.004c1.39 0 1.576-.281 1.39-1.683l-1.112-7.011c0-.187-.185-.374-.278-.655-.185.187-.463.28-.556.468-1.39 2.524-2.78 5.048-4.078 7.572-.278.374-.278.748-.37 1.309zm193.877 7.852h-3.336c-.278 0-.556-.374-.649-.655-.648-2.15-1.204-4.3-1.853-6.357-.278-1.028-.556-1.963-1.761-2.43-1.019-.374-1.483-.187-1.761.934-.556 2.618-1.205 5.142-1.668 7.76-.093.748-.463.841-1.019.841h-1.02c-2.039 0-2.039 0-1.575-2.057 1.297-6.076 2.595-12.246 3.892-18.323.093-.654.371-1.028 1.112-.935h2.966c-.371 1.59-.649 3.085-.927 4.581-.278 1.122-.463 2.244-.741 3.366-.186 1.028.185 1.495 1.204 1.121.742-.28 1.483-.747 1.947-1.308 1.204-1.777 2.317-3.646 3.521-5.423 1.39-1.963 3.337-2.617 5.839-2.337-.278.842-.464 1.59-.742 2.244-.092.187-.556.467-.834.374-1.204-.094-1.76.56-2.317 1.496a39.854 39.854 0 01-2.78 4.113c-.463.654-1.297 1.122-2.039 1.496-.556.28-.648.561-.185.841 1.946.935 2.595 2.711 3.058 4.675a509.36 509.36 0 011.668 5.983zm-100.639-15.426c-1.297.094-2.409.281-3.614.374-.093-.187-.278-.28-.371-.467-.463-2.898-3.521-3.366-5.746-2.805-2.316.561-3.707 2.15-4.633 4.301-1.02 2.43-1.483 4.861-.927 7.479.371 1.963 1.483 3.459 3.522 3.832 2.224.374 4.17-.28 5.56-2.243.464-.561.742-1.309 1.205-2.057 1.112.187 2.317.374 3.522.561-1.947 5.703-8.156 8.601-13.346 6.264-2.409-1.122-3.799-3.179-4.263-5.797-.741-4.019.093-7.759 2.317-11.124 2.595-3.927 8.248-5.703 12.511-3.833 2.41.934 3.8 2.804 4.263 5.515zm83.959.001c-1.112.093-2.225.28-3.337.374-.185 0-.463-.281-.463-.468-.371-1.495-1.112-2.43-2.595-2.804-1.668-.374-3.151-.28-4.726.56-2.595 1.403-3.429 3.927-3.985 6.545-.278 1.496-.278 3.178 0 4.768.278 1.963 1.482 3.365 3.429 3.739 2.131.467 4.077-.28 5.467-2.057.464-.561.742-1.309 1.205-2.15 1.112.187 2.317.374 3.522.561-1.854 5.703-8.341 8.694-13.345 6.264-2.317-1.122-3.707-3.179-4.171-5.703-.741-4.02.093-7.759 2.317-11.125 2.595-3.926 8.155-5.703 12.511-3.833 2.224.561 3.985 2.992 4.171 5.329zM3.511 98.72c1.02-2.617 2.966-3.926 5.283-4.58 2.41-.655 4.726-.188 6.858 1.121 3.243 1.963 3.336 6.264.185 8.414-.463.28-.834.561-1.297.748-.834.374-.742.748-.093 1.122 3.707 2.243 2.78 6.731-.278 8.787-3.614 2.338-7.507 2.525-11.306.468-1.02-.561-1.669-1.87-2.41-2.898-.093-.094.185-.655.37-.748.835-.374 1.762-.561 2.596-.748.185 0 .648.28.834.561 1.39 2.244 5.56 2.804 7.599 1.028 1.02-.935 1.39-2.337 1.02-3.552-.464-1.496-1.669-1.87-3.059-2.057-.37-.093-.834 0-1.39 0 .185-1.028.37-1.87.556-2.805.093-.186.556-.373.834-.467.742-.187 1.668-.093 2.41-.374 1.575-.561 2.224-1.87 2.039-3.552-.093-1.029-1.02-1.964-2.317-2.057-1.761-.187-3.615-.094-4.634 1.776-.093.187-.463.374-.741.374-.835-.093-1.854-.374-3.059-.56zm97.769 17.11c0-.281.092-.561.092-.748.093-1.87.093-1.964 1.946-1.87 1.947.093 4.356-2.524 3.615-4.768-1.298-4.113-2.41-8.414-3.615-12.62a11.642 11.642 0 00-.37-1.496c1.204 0 2.224-.094 3.243 0 .278 0 .742.467.742.748.741 3.178 1.39 6.263 2.039 9.442.092.467.37.841.648 1.215.371-.28.834-.467 1.112-.841 2.317-3.272 4.634-6.544 6.951-9.723.278-.374.927-.654 1.39-.748.927-.093 1.946 0 2.966 0 0 .187 0 .374-.093.468-4.819 6.357-9.545 12.807-14.365 19.164-1.482 2.057-3.707 2.524-6.301 1.777zm45.223-.187c1.297-6.17 2.595-12.153 3.799-18.323h-6.394a40.67 40.67 0 01.556-2.618c.093-.187.463-.374.649-.374h15.94c-.186.935-.278 1.683-.556 2.43-.093.281-.649.562-1.02.562-1.761.093-3.521 0-5.375 0-1.019 4.861-2.039 9.535-2.965 14.303-.279 1.122-.371 2.244-.742 3.366-.093.28-.556.654-.834.654-.834.093-1.853 0-3.058 0zM306.462 97.32h-6.395c.186-.935.371-1.776.556-2.618 0-.187.371-.374.556-.374h16.033c-.185.935-.278 1.683-.556 2.43-.093.281-.649.562-1.019.562-1.761.093-3.522 0-5.375 0-1.205 5.889-2.503 11.592-3.615 17.388-.185.748-.37 1.028-1.112 1.028h-2.965c1.39-6.17 2.594-12.153 3.892-18.416zm-226.96-2.806c-.186.655-.278 1.496-.464 2.244-.092.28-.556.467-.926.467-1.39.094-2.78 0-4.263 0-.371 0-.835 0-1.205.094-1.205 5.796-2.503 11.592-3.615 17.295-.185.748-.37 1.028-1.112 1.028h-2.873a768.06 768.06 0 011.39-6.544c.742-3.646 1.576-7.198 2.317-10.844.186-.655-.092-1.029-.834-1.029H62.45c.186-.934.279-1.682.556-2.524.093-.187.464-.467.742-.467H79.41c-.093.093-.093.187.093.28z" fill="#F2F2F2"/><path d="M165.048 107.042c0-3.085.927-5.797 2.966-8.04 1.39-1.59 4.077-2.618 6.765-1.496 1.853.748 2.966 2.524 3.058 4.955.093 3.459-.926 6.45-3.429 8.787-2.039 1.964-5.097 2.151-7.414.561-1.297-.841-1.946-2.43-1.946-4.767z" fill="#373334"/></g></svg>